<?xml version="1.0" encoding="utf-8"?>
<svg xmlns="http://www.w3.org/2000/svg"
     width="1800" height="1200"
     viewBox="0 0 5798 3829"
     fill="none"
     stroke-linejoin="round">

  <style>
    text {
      font-family: "Liberation Sans", "Arial", sans-serif;
      letter-spacing: 2px;
      text-transform: uppercase;
    }
  </style>

  <!-- ARRIVE POINT -->
  <circle cx="1245" cy="1933" r="75" fill="none" stroke="#3465A4" stroke-width="10"/>
  <line x1="46" y1="1933" x2="1246" y2="1933" stroke="#3465A4" stroke-width="10"/>
  <line x1="1243" y1="1192" x2="1243" y2="2712" stroke="#3465A4" stroke-width="10"/>

  <text x="178" y="1586" font-size="220" fill="#3F51B5">ARRIVE</text>
  <text x="249" y="1851" font-size="220" fill="#3F51B5">POINT</text>

  <!-- LEFT TRIANGLE (symmetrically aligned) -->
  <path d="M 2881 1933 L 1437 1203 L 1437 2703 Z" stroke="#000" stroke-width="10"/>

  <!-- SPINDLE POINT -->
  <circle cx="2881" cy="1933" r="75" fill="none" stroke="#7E57C2" stroke-width="10"/>
  <line x1="2883" y1="527" x2="2883" y2="1947" stroke="#7E57C2" stroke-width="10"/>

  <!-- RECTANGLE WITHOUT FILL -->
  <rect x="2376" y="27" width="1000" height="500" fill="none" stroke="#7E57C2" stroke-width="10"/>

  <text x="2030" y="2600" font-size="220" fill="#7E57C2">SPINDLE POINT</text>

  <!-- RIGHT TRIANGLE (symmetrically aligned) -->
  <path d="M 2881 1933 L 4325 1203 L 4325 2703 Z" stroke="#000" stroke-width="10"/>

  <!-- LEAVE POINT -->
  <circle cx="4521" cy="1933" r="75" fill="none" stroke="#EF5350" stroke-width="10"/>
  <line x1="4521" y1="1196" x2="4521" y2="2716" stroke="#EF5350" stroke-width="10"/>
  <line x1="4540" y1="1933" x2="5740" y2="1933" stroke="#EF5350" stroke-width="10"/>

  <text x="4773" y="1571" font-size="220" fill="#EF5350">LEAVE</text>
  <text x="4808" y="1857" font-size="220" fill="#EF5350">POINT</text>

  <!-- FLOW DIRECTION -->
  <line x1="1916" y1="3138" x2="3529" y2="3138" stroke="#000" stroke-width="10"/>
  <polygon points="3516 3038 3916 3138 3516 3238" fill="#000"/>
  <text x="1997" y="3470" font-size="200" fill="#6C757D">FLOW DIRECTION</text>

</svg>
