<?xml version="1.0" encoding="utf-8"?>
<svg width="256" height="256" viewBox="0 0 128 128" version="1.1" xmlns="http://www.w3.org/2000/svg">
  <defs>
    <linearGradient id="bg_grad" x1="0%" y1="0%" x2="0%" y2="100%">
      <stop offset="0" style="stop-color:#62a0ea;stop-opacity:1"/>
      <stop offset="1" style="stop-color:#3584e4;stop-opacity:1"/>
    </linearGradient>
    <filter id="shadow" x="-50%" y="-50%" width="200%" height="200%">
      <feGaussianBlur in="SourceAlpha" stdDeviation="3"/>
      <feOffset dx="0" dy="2" result="offsetblur"/>
      <feFlood flood-color="#000000" flood-opacity="0.3" result="offsetColor"/>
      <feComposite in="offsetColor" in2="offsetblur" operator="in" result="offsetBlur"/>
      <feMerge>
        <feMergeNode in="offsetBlur"/>
        <feMergeNode in="SourceGraphic"/>
      </feMerge>
    </filter>
  </defs>
  <rect x="12" y="14" width="104" height="104" rx="24" fill="#1c71d8" opacity="0.5" filter="url(#shadow)"/>
  <rect x="12" y="12" width="104" height="104" rx="24" fill="url(#bg_grad)"/>
  <path d="M 38 35.4 L 38 78.6" fill="none" stroke="white" stroke-width="4" stroke-linecap="round" stroke-linejoin="round" style="stroke-width: 3.2;"/>
  <path d="M 91 35.4 L 91 78.6" fill="none" stroke="white" stroke-width="4" stroke-linecap="round" stroke-linejoin="round" style="stroke-width: 3.2;"/>
  <path d="M 26 57 L 38 57" fill="none" stroke="white" stroke-width="4" stroke-linecap="round" stroke-linejoin="round" style="stroke-width: 3.2;"/>
  <path d="M 91 57 L 103 57" fill="none" stroke="white" stroke-width="4" stroke-linecap="round" stroke-linejoin="round" style="stroke-width: 3.2;"/>
  <line x1="84.393" y1="38.52" x2="43.903" y2="75.48" fill="none" stroke="white" stroke-width="4" stroke-linecap="round" stroke-linejoin="round" style="stroke-width: 3.2;"/>
  <circle cx="64" cy="57" r="6" fill="white" stroke="none" stroke-width="4" stroke-linecap="round" stroke-linejoin="round" style="stroke-width: 3.2;"/>
  <path d="M 39.737 94.4 L 88.106 94.4" style="stroke-width: 3.2; transform-box: fill-box; transform-origin: 50% 50%;" fill="none" stroke="white" stroke-width="4" stroke-linecap="round" stroke-linejoin="round" transform="matrix(1, 0, 0, 1, 0, -0.000036)"/>
  <path d="M 93.6 94.4 L 74.4 88 L 74.4 100.8 L 93.6 94.4 Z" fill="white" stroke="none" stroke-width="4" stroke-linecap="round" stroke-linejoin="round" style="stroke-width: 3.2;"/>
  <path d="M36,12 H92 C105.254834,12 116,22.745166 116,36 V52 H12 V36 C12,22.745166 22.745166,12 36,12 Z" fill="white" opacity="0.08"/>
</svg>