<?xml version="1.0" encoding="utf-8"?>
<svg width="400" height="250" viewBox="0 0 400 250" fill="none" xmlns="http://www.w3.org/2000/svg">
  <path d="M 0.676 29.76 L 250.726 29.76 M -62.113 57.562 L 187.937 57.562 M 0.676 88.431 L 250.726 88.431 M 0.676 117.767 L 250.726 117.767 M 31.932 0.425 L 31.932 147.102 M 63.189 0.425 L 63.189 147.102 M 94.445 0.425 L 94.445 147.102 M 125.701 0.425 L 125.701 147.102 M 156.957 0.425 L 156.957 147.102 M 188.214 0.425 L 188.214 147.102" stroke="#e9ecef" stroke-width="1" style=""/>
  <path d="M 39.924 77.701 L 89.924 52.701 L 89.924 102.701 L 39.924 77.701 Z" fill="#0078D6" stroke="#005A9E" stroke-width="2"/>
  <path d="M 139.924 77.701 L 89.924 52.701 L 89.924 102.701 L 139.924 77.701 Z" fill="#0078D6" stroke="#005A9E" stroke-width="2"/>
  <rect x="84.924" y="27.701" width="10" height="25" fill="#6c757d"/>
  <circle cx="89.924" cy="22.701" r="10" stroke="#6c757d" stroke-width="2"/>
  <circle cx="39.924" cy="77.701" r="5" fill="#dc3545"/>
  <text x="14.924" y="67.701" font-family="Arial" font-size="12" fill="#dc3545" font-weight="bold" style="white-space: pre; font-size: 12px;">Arrive</text>
  <circle cx="139.924" cy="77.701" r="5" fill="#28a745"/>
  <text x="144.924" y="67.701" font-family="Arial" font-size="12" fill="#28a745" font-weight="bold" style="white-space: pre; font-size: 12px;">Leave</text>
  <circle cx="89.924" cy="12.701" r="5" fill="#ffc107"/>
  <text x="104.924" y="17.701" font-family="Arial" font-size="12" fill="#856404" font-weight="bold" style="white-space: pre; font-size: 12px;">Spindle</text>
  <path d="M 49.924 122.701 L 129.924 122.701" stroke="#6c757d" stroke-width="2" stroke-dasharray="4 2" marker-end="url(#arrowhead)"/>
  <text x="64.924" y="137.701" font-family="Arial" font-size="10" fill="#6c757d" style="white-space: pre; font-size: 10px;">Flow Direction</text>
  <defs>
    <marker id="arrowhead" markerWidth="10" markerHeight="7" refX="0" refY="3.5" orient="auto">
      <polygon points="0 0, 10 3.5, 0 7" fill="#6c757d"/>
    </marker>
  </defs>
</svg>